<mxfile host="Electron" modified="2023-04-28T00:57:46.962Z" agent="Mozilla/5.0 (Windows NT 10.0; Win64; x64) AppleWebKit/537.36 (KHTML, like Gecko) draw.io/21.2.1 Chrome/112.0.5615.87 Electron/24.1.2 Safari/537.36" etag="OOPT0z0Jxb-PcHkePkhz" version="21.2.1" type="device">
  <diagram name="Page-1" id="2fynzbbunWQSpia0MH8g">
    <mxGraphModel dx="2643" dy="2145" grid="1" gridSize="10" guides="1" tooltips="1" connect="1" arrows="1" fold="1" page="1" pageScale="1" pageWidth="850" pageHeight="1100" math="0" shadow="0">
      <root>
        <mxCell id="0" />
        <mxCell id="1" parent="0" />
        <mxCell id="cZyoCQY_LDvx8M22JGRk-27" value="System" style="shape=rect;html=1;verticalAlign=top;fontStyle=1;whiteSpace=wrap;align=center;fillColor=none;strokeColor=#36393d;" vertex="1" parent="1">
          <mxGeometry x="-360" y="-320" width="1360" height="1400" as="geometry" />
        </mxCell>
        <mxCell id="k9iDeYTRiVOfP1uAQHDs-43" style="rounded=0;orthogonalLoop=1;jettySize=auto;html=1;" parent="1" source="k9iDeYTRiVOfP1uAQHDs-3" target="k9iDeYTRiVOfP1uAQHDs-10" edge="1">
          <mxGeometry relative="1" as="geometry" />
        </mxCell>
        <mxCell id="k9iDeYTRiVOfP1uAQHDs-46" style="rounded=0;orthogonalLoop=1;jettySize=auto;html=1;" parent="1" source="k9iDeYTRiVOfP1uAQHDs-3" target="k9iDeYTRiVOfP1uAQHDs-15" edge="1">
          <mxGeometry relative="1" as="geometry" />
        </mxCell>
        <mxCell id="k9iDeYTRiVOfP1uAQHDs-3" value="User" style="shape=umlActor;html=1;verticalLabelPosition=bottom;verticalAlign=top;align=center;" parent="1" vertex="1">
          <mxGeometry x="-480" y="400" width="40" height="80" as="geometry" />
        </mxCell>
        <mxCell id="k9iDeYTRiVOfP1uAQHDs-10" value="Manage Account" style="ellipse;whiteSpace=wrap;html=1;" parent="1" vertex="1">
          <mxGeometry x="260" y="-40" width="120" height="80" as="geometry" />
        </mxCell>
        <mxCell id="k9iDeYTRiVOfP1uAQHDs-11" value="Log in" style="ellipse;whiteSpace=wrap;html=1;" parent="1" vertex="1">
          <mxGeometry x="150" y="-80" width="80" height="40" as="geometry" />
        </mxCell>
        <mxCell id="k9iDeYTRiVOfP1uAQHDs-12" value="Log out" style="ellipse;whiteSpace=wrap;html=1;" parent="1" vertex="1">
          <mxGeometry x="280" y="-140" width="80" height="40" as="geometry" />
        </mxCell>
        <mxCell id="k9iDeYTRiVOfP1uAQHDs-15" value="Manage categories" style="ellipse;whiteSpace=wrap;html=1;" parent="1" vertex="1">
          <mxGeometry x="260" y="160" width="120" height="80" as="geometry" />
        </mxCell>
        <mxCell id="k9iDeYTRiVOfP1uAQHDs-55" value="" style="rounded=0;orthogonalLoop=1;jettySize=auto;html=1;" parent="1" source="k9iDeYTRiVOfP1uAQHDs-3" target="k9iDeYTRiVOfP1uAQHDs-17" edge="1">
          <mxGeometry relative="1" as="geometry">
            <mxPoint x="-160" y="643" as="sourcePoint" />
            <mxPoint x="291" y="711" as="targetPoint" />
          </mxGeometry>
        </mxCell>
        <mxCell id="k9iDeYTRiVOfP1uAQHDs-17" value="Manage transactions" style="ellipse;whiteSpace=wrap;html=1;" parent="1" vertex="1">
          <mxGeometry x="260" y="280" width="120" height="80" as="geometry" />
        </mxCell>
        <mxCell id="k9iDeYTRiVOfP1uAQHDs-57" value="Authenticate and authorize" style="ellipse;whiteSpace=wrap;html=1;" parent="1" vertex="1">
          <mxGeometry x="810" y="415" width="150" height="50" as="geometry" />
        </mxCell>
        <mxCell id="k9iDeYTRiVOfP1uAQHDs-66" value="Create transaction" style="ellipse;whiteSpace=wrap;html=1;" parent="1" vertex="1">
          <mxGeometry x="160" y="360" width="80" height="40" as="geometry" />
        </mxCell>
        <mxCell id="k9iDeYTRiVOfP1uAQHDs-18" value="View transaction" style="ellipse;whiteSpace=wrap;html=1;" parent="1" vertex="1">
          <mxGeometry x="230" y="400" width="80" height="40" as="geometry" />
        </mxCell>
        <mxCell id="k9iDeYTRiVOfP1uAQHDs-68" value="&amp;lt;&amp;lt;include&amp;gt;&amp;gt;" style="endArrow=classicThin;dashed=1;html=1;rounded=0;endFill=1;" parent="1" source="k9iDeYTRiVOfP1uAQHDs-17" target="k9iDeYTRiVOfP1uAQHDs-18" edge="1">
          <mxGeometry width="50" height="50" relative="1" as="geometry">
            <mxPoint x="207" y="733" as="sourcePoint" />
            <mxPoint x="193" y="747" as="targetPoint" />
          </mxGeometry>
        </mxCell>
        <mxCell id="k9iDeYTRiVOfP1uAQHDs-70" value="&amp;lt;&amp;lt;include&amp;gt;&amp;gt;" style="endArrow=classicThin;dashed=1;html=1;rounded=0;endFill=1;" parent="1" source="k9iDeYTRiVOfP1uAQHDs-17" target="k9iDeYTRiVOfP1uAQHDs-19" edge="1">
          <mxGeometry width="50" height="50" relative="1" as="geometry">
            <mxPoint x="211" y="895" as="sourcePoint" />
            <mxPoint x="169" y="945" as="targetPoint" />
          </mxGeometry>
        </mxCell>
        <mxCell id="k9iDeYTRiVOfP1uAQHDs-19" value="Delete transaction" style="ellipse;whiteSpace=wrap;html=1;" parent="1" vertex="1">
          <mxGeometry x="400" y="360" width="80" height="40" as="geometry" />
        </mxCell>
        <mxCell id="k9iDeYTRiVOfP1uAQHDs-74" value="&amp;lt;&amp;lt;include&amp;gt;&amp;gt;" style="endArrow=classicThin;dashed=1;html=1;rounded=0;endFill=1;" parent="1" source="k9iDeYTRiVOfP1uAQHDs-10" target="k9iDeYTRiVOfP1uAQHDs-73" edge="1">
          <mxGeometry width="50" height="50" relative="1" as="geometry">
            <mxPoint x="203" y="902" as="sourcePoint" />
            <mxPoint x="137" y="958" as="targetPoint" />
          </mxGeometry>
        </mxCell>
        <mxCell id="k9iDeYTRiVOfP1uAQHDs-75" value="&amp;lt;&amp;lt;include&amp;gt;&amp;gt;" style="endArrow=classicThin;dashed=1;html=1;rounded=0;endFill=1;" parent="1" source="k9iDeYTRiVOfP1uAQHDs-10" target="k9iDeYTRiVOfP1uAQHDs-11" edge="1">
          <mxGeometry width="50" height="50" relative="1" as="geometry">
            <mxPoint x="174" y="464" as="sourcePoint" />
            <mxPoint x="-34" y="516" as="targetPoint" />
          </mxGeometry>
        </mxCell>
        <mxCell id="k9iDeYTRiVOfP1uAQHDs-76" value="&amp;lt;&amp;lt;include&amp;gt;&amp;gt;" style="endArrow=classicThin;dashed=1;html=1;rounded=0;endFill=1;" parent="1" source="k9iDeYTRiVOfP1uAQHDs-10" target="k9iDeYTRiVOfP1uAQHDs-12" edge="1">
          <mxGeometry width="50" height="50" relative="1" as="geometry">
            <mxPoint x="184" y="474" as="sourcePoint" />
            <mxPoint x="-24" y="526" as="targetPoint" />
          </mxGeometry>
        </mxCell>
        <mxCell id="k9iDeYTRiVOfP1uAQHDs-73" value="Create account" style="ellipse;whiteSpace=wrap;html=1;" parent="1" vertex="1">
          <mxGeometry x="110" y="-40" width="80" height="40" as="geometry" />
        </mxCell>
        <mxCell id="k9iDeYTRiVOfP1uAQHDs-78" value="&amp;lt;&amp;lt;include&amp;gt;&amp;gt;" style="endArrow=classicThin;dashed=1;html=1;rounded=0;endFill=1;" parent="1" source="k9iDeYTRiVOfP1uAQHDs-10" target="k9iDeYTRiVOfP1uAQHDs-57" edge="1">
          <mxGeometry width="50" height="50" relative="1" as="geometry">
            <mxPoint x="289" y="361" as="sourcePoint" />
            <mxPoint x="423" y="341" as="targetPoint" />
          </mxGeometry>
        </mxCell>
        <mxCell id="k9iDeYTRiVOfP1uAQHDs-79" value="&amp;lt;&amp;lt;include&amp;gt;&amp;gt;" style="endArrow=classicThin;dashed=1;html=1;rounded=0;endFill=1;" parent="1" source="k9iDeYTRiVOfP1uAQHDs-15" target="k9iDeYTRiVOfP1uAQHDs-57" edge="1">
          <mxGeometry width="50" height="50" relative="1" as="geometry">
            <mxPoint x="280" y="427" as="sourcePoint" />
            <mxPoint x="438" y="356" as="targetPoint" />
          </mxGeometry>
        </mxCell>
        <mxCell id="k9iDeYTRiVOfP1uAQHDs-83" value="&amp;lt;&amp;lt;include&amp;gt;&amp;gt;" style="endArrow=classicThin;dashed=1;html=1;rounded=0;endFill=1;" parent="1" source="k9iDeYTRiVOfP1uAQHDs-17" target="k9iDeYTRiVOfP1uAQHDs-57" edge="1">
          <mxGeometry width="50" height="50" relative="1" as="geometry">
            <mxPoint x="170" y="290" as="sourcePoint" />
            <mxPoint x="621" y="-38" as="targetPoint" />
          </mxGeometry>
        </mxCell>
        <mxCell id="qqIUAzHDFkHWtuf4Z_03-3" value="&amp;lt;&amp;lt;include&amp;gt;&amp;gt;" style="endArrow=classicThin;dashed=1;html=1;rounded=0;endFill=1;" parent="1" source="k9iDeYTRiVOfP1uAQHDs-17" target="k9iDeYTRiVOfP1uAQHDs-66" edge="1">
          <mxGeometry width="50" height="50" relative="1" as="geometry">
            <mxPoint x="324" y="290" as="sourcePoint" />
            <mxPoint x="250" y="406" as="targetPoint" />
          </mxGeometry>
        </mxCell>
        <mxCell id="idFxrDe-Qr37dUGTvWFK-1" value="View account" style="ellipse;whiteSpace=wrap;html=1;" parent="1" vertex="1">
          <mxGeometry x="200" y="-120" width="80" height="40" as="geometry" />
        </mxCell>
        <mxCell id="idFxrDe-Qr37dUGTvWFK-2" value="&amp;lt;&amp;lt;include&amp;gt;&amp;gt;" style="endArrow=classicThin;dashed=1;html=1;rounded=0;endFill=1;" parent="1" source="k9iDeYTRiVOfP1uAQHDs-10" target="idFxrDe-Qr37dUGTvWFK-1" edge="1">
          <mxGeometry width="50" height="50" relative="1" as="geometry">
            <mxPoint x="373" y="-78" as="sourcePoint" />
            <mxPoint x="-14" y="476" as="targetPoint" />
          </mxGeometry>
        </mxCell>
        <mxCell id="fF6BAdNsicXdT381fATy-2" style="rounded=0;orthogonalLoop=1;jettySize=auto;html=1;" parent="1" source="k9iDeYTRiVOfP1uAQHDs-3" target="fF6BAdNsicXdT381fATy-34" edge="1">
          <mxGeometry relative="1" as="geometry">
            <mxPoint x="-331.4" y="419.52" as="sourcePoint" />
            <mxPoint x="268.55042445725053" y="645.7002829715007" as="targetPoint" />
          </mxGeometry>
        </mxCell>
        <mxCell id="fF6BAdNsicXdT381fATy-34" value="Manage budget" style="ellipse;whiteSpace=wrap;html=1;" parent="1" vertex="1">
          <mxGeometry x="260" y="480" width="120" height="80" as="geometry" />
        </mxCell>
        <mxCell id="fF6BAdNsicXdT381fATy-35" value="Set budget" style="ellipse;whiteSpace=wrap;html=1;" parent="1" vertex="1">
          <mxGeometry x="160" y="580" width="80" height="40" as="geometry" />
        </mxCell>
        <mxCell id="fF6BAdNsicXdT381fATy-36" value="Edit budget" style="ellipse;whiteSpace=wrap;html=1;" parent="1" vertex="1">
          <mxGeometry x="280" y="600" width="80" height="40" as="geometry" />
        </mxCell>
        <mxCell id="fF6BAdNsicXdT381fATy-37" value="remove budget" style="ellipse;whiteSpace=wrap;html=1;" parent="1" vertex="1">
          <mxGeometry x="400" y="580" width="80" height="40" as="geometry" />
        </mxCell>
        <mxCell id="fF6BAdNsicXdT381fATy-38" value="&amp;lt;&amp;lt;include&amp;gt;&amp;gt;" style="endArrow=classicThin;dashed=1;html=1;rounded=0;endFill=1;" parent="1" source="fF6BAdNsicXdT381fATy-34" target="fF6BAdNsicXdT381fATy-37" edge="1">
          <mxGeometry width="50" height="50" relative="1" as="geometry">
            <mxPoint x="211" y="1095" as="sourcePoint" />
            <mxPoint x="169" y="1145" as="targetPoint" />
          </mxGeometry>
        </mxCell>
        <mxCell id="fF6BAdNsicXdT381fATy-39" value="&amp;lt;&amp;lt;include&amp;gt;&amp;gt;" style="endArrow=classicThin;dashed=1;html=1;rounded=0;endFill=1;" parent="1" source="fF6BAdNsicXdT381fATy-34" target="fF6BAdNsicXdT381fATy-36" edge="1">
          <mxGeometry width="50" height="50" relative="1" as="geometry">
            <mxPoint x="207" y="933" as="sourcePoint" />
            <mxPoint x="193" y="947" as="targetPoint" />
          </mxGeometry>
        </mxCell>
        <mxCell id="fF6BAdNsicXdT381fATy-40" value="&amp;lt;&amp;lt;include&amp;gt;&amp;gt;" style="endArrow=classicThin;dashed=1;html=1;rounded=0;endFill=1;" parent="1" source="fF6BAdNsicXdT381fATy-34" target="fF6BAdNsicXdT381fATy-35" edge="1">
          <mxGeometry width="50" height="50" relative="1" as="geometry">
            <mxPoint x="324" y="490" as="sourcePoint" />
            <mxPoint x="250" y="606" as="targetPoint" />
          </mxGeometry>
        </mxCell>
        <mxCell id="fF6BAdNsicXdT381fATy-41" value="View categories" style="ellipse;whiteSpace=wrap;html=1;" parent="1" vertex="1">
          <mxGeometry x="230" y="80" width="80" height="40" as="geometry" />
        </mxCell>
        <mxCell id="fF6BAdNsicXdT381fATy-42" value="&amp;lt;&amp;lt;include&amp;gt;&amp;gt;" style="endArrow=classicThin;dashed=1;html=1;rounded=0;endFill=1;" parent="1" target="fF6BAdNsicXdT381fATy-45" edge="1">
          <mxGeometry width="50" height="50" relative="1" as="geometry">
            <mxPoint x="268" y="180" as="sourcePoint" />
            <mxPoint x="137" y="1158" as="targetPoint" />
          </mxGeometry>
        </mxCell>
        <mxCell id="fF6BAdNsicXdT381fATy-43" value="&amp;lt;&amp;lt;include&amp;gt;&amp;gt;" style="endArrow=classicThin;dashed=1;html=1;rounded=0;endFill=1;" parent="1" target="fF6BAdNsicXdT381fATy-41" edge="1">
          <mxGeometry width="50" height="50" relative="1" as="geometry">
            <mxPoint x="298" y="163" as="sourcePoint" />
            <mxPoint x="-34" y="716" as="targetPoint" />
          </mxGeometry>
        </mxCell>
        <mxCell id="fF6BAdNsicXdT381fATy-44" value="&amp;lt;&amp;lt;include&amp;gt;&amp;gt;" style="endArrow=classicThin;dashed=1;html=1;rounded=0;endFill=1;" parent="1" target="fF6BAdNsicXdT381fATy-48" edge="1">
          <mxGeometry width="50" height="50" relative="1" as="geometry">
            <mxPoint x="372" y="180" as="sourcePoint" />
            <mxPoint x="-24" y="726" as="targetPoint" />
          </mxGeometry>
        </mxCell>
        <mxCell id="fF6BAdNsicXdT381fATy-45" value="Create category" style="ellipse;whiteSpace=wrap;html=1;" parent="1" vertex="1">
          <mxGeometry x="160" y="120" width="80" height="40" as="geometry" />
        </mxCell>
        <mxCell id="fF6BAdNsicXdT381fATy-46" value="Edit category" style="ellipse;whiteSpace=wrap;html=1;" parent="1" vertex="1">
          <mxGeometry x="330" y="80" width="80" height="40" as="geometry" />
        </mxCell>
        <mxCell id="fF6BAdNsicXdT381fATy-47" value="&amp;lt;&amp;lt;include&amp;gt;&amp;gt;" style="endArrow=classicThin;dashed=1;html=1;rounded=0;endFill=1;" parent="1" target="fF6BAdNsicXdT381fATy-46" edge="1">
          <mxGeometry width="50" height="50" relative="1" as="geometry">
            <mxPoint x="342" y="163" as="sourcePoint" />
            <mxPoint x="-14" y="676" as="targetPoint" />
          </mxGeometry>
        </mxCell>
        <mxCell id="fF6BAdNsicXdT381fATy-48" value="Delete category" style="ellipse;whiteSpace=wrap;html=1;" parent="1" vertex="1">
          <mxGeometry x="400" y="120" width="80" height="40" as="geometry" />
        </mxCell>
        <mxCell id="fF6BAdNsicXdT381fATy-51" value="Change password" style="ellipse;whiteSpace=wrap;html=1;" parent="1" vertex="1">
          <mxGeometry x="410" y="-80" width="80" height="40" as="geometry" />
        </mxCell>
        <mxCell id="fF6BAdNsicXdT381fATy-52" value="&amp;lt;&amp;lt;include&amp;gt;&amp;gt;" style="endArrow=classicThin;dashed=1;html=1;rounded=0;endFill=1;" parent="1" source="k9iDeYTRiVOfP1uAQHDs-10" target="fF6BAdNsicXdT381fATy-55" edge="1">
          <mxGeometry width="50" height="50" relative="1" as="geometry">
            <mxPoint x="534.06" y="-10" as="sourcePoint" />
            <mxPoint x="411.06" y="948" as="targetPoint" />
          </mxGeometry>
        </mxCell>
        <mxCell id="fF6BAdNsicXdT381fATy-53" value="&amp;lt;&amp;lt;include&amp;gt;&amp;gt;" style="endArrow=classicThin;dashed=1;html=1;rounded=0;endFill=1;" parent="1" source="k9iDeYTRiVOfP1uAQHDs-10" target="fF6BAdNsicXdT381fATy-56" edge="1">
          <mxGeometry width="50" height="50" relative="1" as="geometry">
            <mxPoint x="566.06" y="-45" as="sourcePoint" />
            <mxPoint x="260.06" y="466" as="targetPoint" />
          </mxGeometry>
        </mxCell>
        <mxCell id="fF6BAdNsicXdT381fATy-54" value="&amp;lt;&amp;lt;include&amp;gt;&amp;gt;" style="endArrow=classicThin;dashed=1;html=1;rounded=0;endFill=1;" parent="1" source="k9iDeYTRiVOfP1uAQHDs-10" target="fF6BAdNsicXdT381fATy-51" edge="1">
          <mxGeometry width="50" height="50" relative="1" as="geometry">
            <mxPoint x="544.06" y="-32" as="sourcePoint" />
            <mxPoint x="240.06" y="506" as="targetPoint" />
          </mxGeometry>
        </mxCell>
        <mxCell id="fF6BAdNsicXdT381fATy-55" value="Change username" style="ellipse;whiteSpace=wrap;html=1;" parent="1" vertex="1">
          <mxGeometry x="450" y="-40" width="80" height="40" as="geometry" />
        </mxCell>
        <mxCell id="fF6BAdNsicXdT381fATy-56" value="Reset password" style="ellipse;whiteSpace=wrap;html=1;" parent="1" vertex="1">
          <mxGeometry x="360" y="-120" width="80" height="40" as="geometry" />
        </mxCell>
        <mxCell id="fF6BAdNsicXdT381fATy-58" value="&amp;lt;&amp;lt;include&amp;gt;&amp;gt;" style="endArrow=classicThin;dashed=1;html=1;rounded=0;endFill=1;" parent="1" source="fF6BAdNsicXdT381fATy-34" target="k9iDeYTRiVOfP1uAQHDs-57" edge="1">
          <mxGeometry width="50" height="50" relative="1" as="geometry">
            <mxPoint x="388" y="497" as="sourcePoint" />
            <mxPoint x="787" y="272" as="targetPoint" />
          </mxGeometry>
        </mxCell>
        <mxCell id="fF6BAdNsicXdT381fATy-59" value="View statistics" style="ellipse;whiteSpace=wrap;html=1;" parent="1" vertex="1">
          <mxGeometry x="260" y="680" width="120" height="80" as="geometry" />
        </mxCell>
        <mxCell id="fF6BAdNsicXdT381fATy-60" value="View current month&#39;s &lt;br&gt;remaining budget" style="ellipse;whiteSpace=wrap;html=1;" parent="1" vertex="1">
          <mxGeometry x="110" y="770" width="160" height="40" as="geometry" />
        </mxCell>
        <mxCell id="fF6BAdNsicXdT381fATy-61" value="View current month&#39;s&lt;br&gt;&amp;nbsp;transactions" style="ellipse;whiteSpace=wrap;html=1;" parent="1" vertex="1">
          <mxGeometry x="360" y="770" width="140" height="40" as="geometry" />
        </mxCell>
        <mxCell id="fF6BAdNsicXdT381fATy-62" value="View pie-chart of total amount of &lt;br&gt;transactions per categories" style="ellipse;whiteSpace=wrap;html=1;" parent="1" vertex="1">
          <mxGeometry x="220" y="810" width="200" height="50" as="geometry" />
        </mxCell>
        <mxCell id="fF6BAdNsicXdT381fATy-63" value="&amp;lt;&amp;lt;include&amp;gt;&amp;gt;" style="endArrow=classicThin;dashed=1;html=1;rounded=0;endFill=1;" parent="1" source="fF6BAdNsicXdT381fATy-59" target="fF6BAdNsicXdT381fATy-62" edge="1">
          <mxGeometry width="50" height="50" relative="1" as="geometry">
            <mxPoint x="211" y="1292.88" as="sourcePoint" />
            <mxPoint x="169" y="1342.88" as="targetPoint" />
          </mxGeometry>
        </mxCell>
        <mxCell id="fF6BAdNsicXdT381fATy-64" value="&amp;lt;&amp;lt;include&amp;gt;&amp;gt;" style="endArrow=classicThin;dashed=1;html=1;rounded=0;endFill=1;" parent="1" source="fF6BAdNsicXdT381fATy-59" target="fF6BAdNsicXdT381fATy-61" edge="1">
          <mxGeometry width="50" height="50" relative="1" as="geometry">
            <mxPoint x="207" y="1130.88" as="sourcePoint" />
            <mxPoint x="193" y="1144.88" as="targetPoint" />
          </mxGeometry>
        </mxCell>
        <mxCell id="fF6BAdNsicXdT381fATy-65" value="&amp;lt;&amp;lt;include&amp;gt;&amp;gt;" style="endArrow=classicThin;dashed=1;html=1;rounded=0;endFill=1;" parent="1" source="fF6BAdNsicXdT381fATy-59" target="fF6BAdNsicXdT381fATy-60" edge="1">
          <mxGeometry width="50" height="50" relative="1" as="geometry">
            <mxPoint x="324" y="687.8800000000001" as="sourcePoint" />
            <mxPoint x="250" y="803.8800000000001" as="targetPoint" />
          </mxGeometry>
        </mxCell>
        <mxCell id="fF6BAdNsicXdT381fATy-66" style="rounded=0;orthogonalLoop=1;jettySize=auto;html=1;" parent="1" source="k9iDeYTRiVOfP1uAQHDs-3" target="fF6BAdNsicXdT381fATy-59" edge="1">
          <mxGeometry relative="1" as="geometry">
            <mxPoint x="-300" y="400" as="sourcePoint" />
            <mxPoint x="268.55042445725053" y="843.5802829715007" as="targetPoint" />
          </mxGeometry>
        </mxCell>
        <mxCell id="fF6BAdNsicXdT381fATy-67" value="&amp;lt;&amp;lt;include&amp;gt;&amp;gt;" style="endArrow=classicThin;dashed=1;html=1;rounded=0;endFill=1;" parent="1" source="fF6BAdNsicXdT381fATy-59" target="k9iDeYTRiVOfP1uAQHDs-57" edge="1">
          <mxGeometry width="50" height="50" relative="1" as="geometry">
            <mxPoint x="388" y="694.88" as="sourcePoint" />
            <mxPoint x="786" y="460.88" as="targetPoint" />
          </mxGeometry>
        </mxCell>
        <mxCell id="fF6BAdNsicXdT381fATy-69" style="edgeStyle=orthogonalEdgeStyle;rounded=0;orthogonalLoop=1;jettySize=auto;html=1;exitX=0.5;exitY=1;exitDx=0;exitDy=0;" parent="1" source="k9iDeYTRiVOfP1uAQHDs-57" target="k9iDeYTRiVOfP1uAQHDs-57" edge="1">
          <mxGeometry relative="1" as="geometry" />
        </mxCell>
        <mxCell id="fF6BAdNsicXdT381fATy-71" value="Admin" style="shape=umlActor;html=1;verticalLabelPosition=bottom;verticalAlign=top;align=center;" parent="1" vertex="1">
          <mxGeometry x="-480" y="80" width="40" height="80" as="geometry" />
        </mxCell>
        <mxCell id="fF6BAdNsicXdT381fATy-72" value="Analyze userbase" style="ellipse;whiteSpace=wrap;html=1;" parent="1" vertex="1">
          <mxGeometry x="380" y="-240" width="120" height="80" as="geometry" />
        </mxCell>
        <mxCell id="fF6BAdNsicXdT381fATy-78" value="Company (Owner)" style="shape=umlActor;html=1;verticalLabelPosition=bottom;verticalAlign=top;align=center;" parent="1" vertex="1">
          <mxGeometry x="-480" y="-240" width="40" height="80" as="geometry" />
        </mxCell>
        <mxCell id="fF6BAdNsicXdT381fATy-80" value="" style="endArrow=classic;html=1;rounded=0;" parent="1" source="fF6BAdNsicXdT381fATy-71" target="k9iDeYTRiVOfP1uAQHDs-10" edge="1">
          <mxGeometry width="50" height="50" relative="1" as="geometry">
            <mxPoint x="-610" y="410" as="sourcePoint" />
            <mxPoint x="-560" y="360" as="targetPoint" />
          </mxGeometry>
        </mxCell>
        <mxCell id="fF6BAdNsicXdT381fATy-81" value="" style="endArrow=classic;html=1;rounded=0;" parent="1" source="fF6BAdNsicXdT381fATy-78" target="fF6BAdNsicXdT381fATy-72" edge="1">
          <mxGeometry width="50" height="50" relative="1" as="geometry">
            <mxPoint x="-500" y="-190" as="sourcePoint" />
            <mxPoint x="-450" y="-240" as="targetPoint" />
          </mxGeometry>
        </mxCell>
        <mxCell id="fF6BAdNsicXdT381fATy-82" value="" style="endArrow=classicThin;dashed=1;html=1;rounded=0;endFill=1;" parent="1" source="fF6BAdNsicXdT381fATy-72" target="k9iDeYTRiVOfP1uAQHDs-57" edge="1">
          <mxGeometry width="50" height="50" relative="1" as="geometry">
            <mxPoint x="-460" y="-90" as="sourcePoint" />
            <mxPoint x="-410" y="-140" as="targetPoint" />
          </mxGeometry>
        </mxCell>
        <mxCell id="fF6BAdNsicXdT381fATy-83" value="" style="endArrow=classic;html=1;rounded=0;" parent="1" source="fF6BAdNsicXdT381fATy-71" target="fF6BAdNsicXdT381fATy-72" edge="1">
          <mxGeometry width="50" height="50" relative="1" as="geometry">
            <mxPoint x="-460" y="-20" as="sourcePoint" />
            <mxPoint x="-410" y="-70" as="targetPoint" />
          </mxGeometry>
        </mxCell>
        <mxCell id="cZyoCQY_LDvx8M22JGRk-1" value="List all transactions" style="ellipse;whiteSpace=wrap;html=1;" vertex="1" parent="1">
          <mxGeometry x="330" y="400" width="80" height="40" as="geometry" />
        </mxCell>
        <mxCell id="cZyoCQY_LDvx8M22JGRk-2" value="&amp;lt;&amp;lt;include&amp;gt;&amp;gt;" style="endArrow=classicThin;dashed=1;html=1;rounded=0;endFill=1;" edge="1" parent="1" source="k9iDeYTRiVOfP1uAQHDs-17" target="cZyoCQY_LDvx8M22JGRk-1">
          <mxGeometry width="50" height="50" relative="1" as="geometry">
            <mxPoint x="308" y="367" as="sourcePoint" />
            <mxPoint x="271" y="431" as="targetPoint" />
          </mxGeometry>
        </mxCell>
        <mxCell id="cZyoCQY_LDvx8M22JGRk-9" value="Manage ads" style="ellipse;whiteSpace=wrap;html=1;" vertex="1" parent="1">
          <mxGeometry x="320" y="880" width="120" height="80" as="geometry" />
        </mxCell>
        <mxCell id="cZyoCQY_LDvx8M22JGRk-10" value="Remove ads" style="ellipse;whiteSpace=wrap;html=1;" vertex="1" parent="1">
          <mxGeometry x="260" y="980" width="80" height="40" as="geometry" />
        </mxCell>
        <mxCell id="cZyoCQY_LDvx8M22JGRk-11" value="Show ads" style="ellipse;whiteSpace=wrap;html=1;" vertex="1" parent="1">
          <mxGeometry x="420" y="980" width="80" height="40" as="geometry" />
        </mxCell>
        <mxCell id="cZyoCQY_LDvx8M22JGRk-14" value="&amp;lt;&amp;lt;include&amp;gt;&amp;gt;" style="endArrow=classicThin;dashed=1;html=1;rounded=0;endFill=1;" edge="1" source="cZyoCQY_LDvx8M22JGRk-9" target="cZyoCQY_LDvx8M22JGRk-11" parent="1">
          <mxGeometry width="50" height="50" relative="1" as="geometry">
            <mxPoint x="257" y="1353" as="sourcePoint" />
            <mxPoint x="243" y="1367" as="targetPoint" />
          </mxGeometry>
        </mxCell>
        <mxCell id="cZyoCQY_LDvx8M22JGRk-15" value="&amp;lt;&amp;lt;include&amp;gt;&amp;gt;" style="endArrow=classicThin;dashed=1;html=1;rounded=0;endFill=1;" edge="1" source="cZyoCQY_LDvx8M22JGRk-9" target="cZyoCQY_LDvx8M22JGRk-10" parent="1">
          <mxGeometry width="50" height="50" relative="1" as="geometry">
            <mxPoint x="261" y="1515" as="sourcePoint" />
            <mxPoint x="219" y="1565" as="targetPoint" />
          </mxGeometry>
        </mxCell>
        <mxCell id="cZyoCQY_LDvx8M22JGRk-23" style="rounded=0;orthogonalLoop=1;jettySize=auto;html=1;" edge="1" parent="1" source="k9iDeYTRiVOfP1uAQHDs-3" target="cZyoCQY_LDvx8M22JGRk-10">
          <mxGeometry relative="1" as="geometry">
            <mxPoint x="-430" y="458" as="sourcePoint" />
            <mxPoint x="279" y="749" as="targetPoint" />
          </mxGeometry>
        </mxCell>
        <mxCell id="cZyoCQY_LDvx8M22JGRk-24" value="&amp;lt;&amp;lt;include&amp;gt;&amp;gt;" style="endArrow=classicThin;dashed=1;html=1;rounded=0;endFill=1;" edge="1" parent="1" source="cZyoCQY_LDvx8M22JGRk-9" target="k9iDeYTRiVOfP1uAQHDs-57">
          <mxGeometry width="50" height="50" relative="1" as="geometry">
            <mxPoint x="377" y="745" as="sourcePoint" />
            <mxPoint x="855" y="496" as="targetPoint" />
          </mxGeometry>
        </mxCell>
        <mxCell id="cZyoCQY_LDvx8M22JGRk-25" value="Google AdSense" style="shape=umlActor;html=1;verticalLabelPosition=bottom;verticalAlign=top;align=center;" vertex="1" parent="1">
          <mxGeometry x="440" y="1120" width="40" height="80" as="geometry" />
        </mxCell>
        <mxCell id="cZyoCQY_LDvx8M22JGRk-26" value="" style="endArrow=classic;html=1;rounded=0;" edge="1" parent="1" source="cZyoCQY_LDvx8M22JGRk-11" target="cZyoCQY_LDvx8M22JGRk-25">
          <mxGeometry width="50" height="50" relative="1" as="geometry">
            <mxPoint x="1190" y="170" as="sourcePoint" />
            <mxPoint x="1240" y="120" as="targetPoint" />
          </mxGeometry>
        </mxCell>
        <mxCell id="cZyoCQY_LDvx8M22JGRk-28" value="Paypal Checkout" style="shape=umlActor;html=1;verticalLabelPosition=bottom;verticalAlign=top;align=center;" vertex="1" parent="1">
          <mxGeometry x="280" y="1120" width="40" height="80" as="geometry" />
        </mxCell>
        <mxCell id="cZyoCQY_LDvx8M22JGRk-29" value="" style="endArrow=classic;html=1;rounded=0;" edge="1" parent="1" source="cZyoCQY_LDvx8M22JGRk-10" target="cZyoCQY_LDvx8M22JGRk-28">
          <mxGeometry width="50" height="50" relative="1" as="geometry">
            <mxPoint x="990" y="1160" as="sourcePoint" />
            <mxPoint x="300" y="1170" as="targetPoint" />
          </mxGeometry>
        </mxCell>
      </root>
    </mxGraphModel>
  </diagram>
</mxfile>
